<?xml version="1.0" encoding="utf-8"?>
<!-- Generator: Adobe Illustrator 23.0.0, SVG Export Plug-In . SVG Version: 6.00 Build 0)  -->
<svg version="1.1" id="Layer_1" xmlns="http://www.w3.org/2000/svg" xmlns:xlink="http://www.w3.org/1999/xlink" x="0px" y="0px"
	 viewBox="0 0 448 512" style="enable-background:new 0 0 448 512;" xml:space="preserve">
<style type="text/css">
	.st0{fill:#BACFE2;}
</style>
<path class="st0" d="M129.6,176h39.1c1.5-27,6.5-51.3,14.2-70.4C155.2,118.8,134.9,144.8,129.6,176z M129.6,208
	c5.3,31.2,25.6,57.2,53.3,70.4c-7.7-19.1-12.7-43.4-14.2-70.4H129.6z M224,286.7c7.7-7.5,20.8-34.4,23.4-78.7h-46.9
	C203.2,252.3,216.3,279.2,224,286.7z M200.6,176h46.9c-2.7-44.3-15.7-71.2-23.4-78.7C216.3,104.8,203.2,131.7,200.6,176z
	 M265.1,278.4c27.7-13.2,48-39.2,53.3-70.4h-39.1C277.8,235,272.8,259.4,265.1,278.4z M416,0H64C28.6,0,0,28.6,0,64v384
	c0,35.4,28.6,64,64,64h352c17.7,0,32-14.3,32-32V32C448,14.3,433.7,0,416,0z M336,416H112c-8.8,0-16-7.2-16-16s7.2-16,16-16h224
	c8.8,0,16,7.2,16,16S344.8,416,336,416z M224,320c-70.7,0-128-57.3-128-128S153.3,64,224,64s128,57.3,128,128S294.7,320,224,320z
	 M265.1,105.6c7.7,19.1,12.7,43.4,14.2,70.4h39.1C313.1,144.8,292.8,118.8,265.1,105.6z"/>
</svg>
