<?xml version="1.0" standalone="no"?>
<!DOCTYPE svg PUBLIC "-//W3C//DTD SVG 20010904//EN"
 "http://www.w3.org/TR/2001/REC-SVG-20010904/DTD/svg10.dtd">
<svg version="1.0" xmlns="http://www.w3.org/2000/svg"
 width="238.000000pt" height="238.000000pt" viewBox="0 0 238.000000 238.000000"
 preserveAspectRatio="xMidYMid meet">
<metadata>
Created by potrace 1.11, written by Peter Selinger 2001-2013
</metadata>
<g transform="translate(0.000000,238.000000) scale(0.100000,-0.100000)"
fill="#000000" stroke="none">
<path d="M1945 2033 c-33 -19 -121 -66 -195 -105 -74 -39 -148 -78 -165 -88
-16 -10 -104 -57 -195 -105 -203 -108 -257 -137 -440 -235 -80 -43 -188 -101
-240 -129 -52 -28 -131 -70 -175 -92 l-80 -41 0 -461 c0 -254 3 -466 7 -472 6
-10 923 -14 932 -4 3 3 39 103 158 439 11 30 71 201 135 380 63 179 137 386
163 460 63 176 156 439 164 468 9 29 3 27 -69 -15z"/>
</g>
</svg>
